<?xml version="1.0" encoding="UTF-8"?>
<!DOCTYPE svg PUBLIC "-//W3C//DTD SVG 1.1//EN" "http://www.w3.org/Graphics/SVG/1.1/DTD/svg11.dtd">
<svg xmlns="http://www.w3.org/2000/svg" version="1.1" width="512px" height="512px" style="shape-rendering:geometricPrecision; text-rendering:geometricPrecision; image-rendering:optimizeQuality; fill-rule:evenodd; clip-rule:evenodd" xmlns:xlink="http://www.w3.org/1999/xlink">
<g><path style="opacity:0.928" fill="#000000" d="M 73.5,-0.5 C 82.5,-0.5 91.5,-0.5 100.5,-0.5C 136.222,6.87636 160.222,27.8764 172.5,62.5C 213.401,47.1103 255.401,43.2769 298.5,51C 312.221,53.5186 325.555,57.352 338.5,62.5C 350.778,27.8764 374.778,6.87636 410.5,-0.5C 419.5,-0.5 428.5,-0.5 437.5,-0.5C 477.833,8.5 502.5,33.1667 511.5,73.5C 511.5,82.5 511.5,91.5 511.5,100.5C 505.386,131.524 488.053,154.024 459.5,168C 488.405,222.807 495.238,280.307 480,340.5C 457.678,415.154 410.511,467.321 338.5,497C 318.278,504.34 297.611,509.173 276.5,511.5C 262.5,511.5 248.5,511.5 234.5,511.5C 142.828,499.651 77.9951,451.651 40,367.5C 18.0002,308.83 18.0002,250.163 40,191.5C 43.4332,183.467 47.2665,175.634 51.5,168C 22.9468,154.024 5.61351,131.524 -0.5,100.5C -0.5,91.5 -0.5,82.5 -0.5,73.5C 8.5,33.1667 33.1667,8.5 73.5,-0.5 Z M 86.5,14.5 C 121.363,17.0392 144.696,34.7059 156.5,67.5C 152.268,71.4517 147.268,74.1183 141.5,75.5C 135.982,51.8156 121.315,37.3156 97.5,32C 69.5701,28.3799 49.0701,38.8799 36,63.5C 25.8728,91.1661 32.0395,114.333 54.5,133C 59.0167,135.759 63.6834,138.259 68.5,140.5C 65.89,145.109 62.89,149.442 59.5,153.5C 27.0874,137.689 12.5874,111.689 16,75.5C 24.8802,38.1113 48.3802,17.778 86.5,14.5 Z M 423.5,14.5 C 462.191,17.4277 486.025,37.761 495,75.5C 498.374,111.431 484.04,137.431 452,153.5C 448.279,149.607 445.113,145.273 442.5,140.5C 474.541,125.412 485.707,100.745 476,66.5C 472.554,57.5926 467.221,56.2593 460,62.5C 459.333,65.1667 459.333,67.8333 460,70.5C 468.777,98.2786 459.444,116.945 432,126.5C 423.876,119.377 416.042,111.877 408.5,104C 400.128,97.4889 391.794,90.9889 383.5,84.5C 388.968,57.7645 405.301,45.5978 432.5,48C 435.244,48.8035 437.911,49.8035 440.5,51C 451.004,52.1635 454.338,47.8301 450.5,38C 424.326,25.8359 401.159,30.0026 381,50.5C 375,57.833 371.167,66.1663 369.5,75.5C 363.732,74.1183 358.732,71.4517 354.5,67.5C 361.628,45.2029 375.961,29.3696 397.5,20C 406.078,17.0526 414.745,15.2193 423.5,14.5 Z M 78.5,47.5 C 105.677,45.5789 122.01,57.9122 127.5,84.5C 119.206,90.9889 110.872,97.4889 102.5,104C 94.9578,111.877 87.1244,119.377 79,126.5C 55.5832,119.009 45.2499,103.009 48,78.5C 52.3489,62.3186 62.5156,51.9852 78.5,47.5 Z M 235.5,63.5 C 328.541,59.4256 398.708,97.0923 446,176.5C 476.28,236.677 479.614,298.344 456,361.5C 416.499,446.694 349.666,491.694 255.5,496.5C 161.332,491.694 94.4992,446.694 55,361.5C 26.2241,282.842 36.8908,210.176 87,143.5C 125.758,97.0354 175.258,70.3687 235.5,63.5 Z M 152.5,215.5 C 165.232,216.311 169.399,222.644 165,234.5C 156.848,241.753 149.848,240.753 144,231.5C 142.41,223.675 145.243,218.342 152.5,215.5 Z M 352.5,215.5 C 364.545,215.94 369.045,221.94 366,233.5C 361.17,239.777 355.337,240.943 348.5,237C 341.348,228.281 342.682,221.115 352.5,215.5 Z M 227.5,312.5 C 245.995,311.338 264.662,311.171 283.5,312C 277.167,318.333 270.833,324.667 264.5,331C 258.5,334.333 252.5,334.333 246.5,331C 240.298,324.631 233.965,318.464 227.5,312.5 Z"/></g>
<g><path style="opacity:0.926" fill="#000000" d="M 149.5,199.5 C 167.553,198.094 178.72,206.094 183,223.5C 184.201,240.279 176.701,250.779 160.5,255C 144.137,256.903 133.304,250.07 128,234.5C 125.563,216.676 132.729,205.009 149.5,199.5 Z M 152.5,215.5 C 145.243,218.342 142.41,223.675 144,231.5C 149.848,240.753 156.848,241.753 165,234.5C 169.399,222.644 165.232,216.311 152.5,215.5 Z"/></g>
<g><path style="opacity:0.926" fill="#000000" d="M 349.5,199.5 C 373.755,198.691 384.921,210.357 383,234.5C 377.696,250.07 366.863,256.903 350.5,255C 333.992,250.502 326.492,239.669 328,222.5C 330.909,210.76 338.076,203.094 349.5,199.5 Z M 352.5,215.5 C 342.682,221.115 341.348,228.281 348.5,237C 355.337,240.943 361.17,239.777 366,233.5C 369.045,221.94 364.545,215.94 352.5,215.5 Z"/></g>
<g><path style="opacity:0.924" fill="#000000" d="M 245.5,239.5 C 272.896,237.915 297.896,244.748 320.5,260C 325.833,265 325.833,270 320.5,275C 318.167,275.667 315.833,275.667 313.5,275C 272.787,248.188 232.787,249.188 193.5,278C 159.753,310.057 151.253,347.891 168,391.5C 171.989,398.647 175.822,405.814 179.5,413C 178.082,420.012 174.082,422.346 167.5,420C 157.686,408.544 150.853,395.377 147,380.5C 136.051,325.297 154.218,282.797 201.5,253C 215.453,245.735 230.119,241.235 245.5,239.5 Z"/></g>
<g><path style="opacity:0.923" fill="#000000" d="M 335.5,282.5 C 338.187,282.336 340.854,282.503 343.5,283C 359.524,302.901 367.524,325.735 367.5,351.5C 365.061,405.08 338.727,440.913 288.5,459C 252.451,468.881 219.118,463.214 188.5,442C 184.278,434.405 186.278,429.572 194.5,427.5C 202.13,431.65 209.796,435.816 217.5,440C 261.839,455.957 299.673,446.457 331,411.5C 357.957,372.401 358.29,333.068 332,293.5C 330.882,289.077 332.049,285.41 335.5,282.5 Z"/></g>
<g><path style="opacity:0.929" fill="#000000" d="M 223.5,295.5 C 244.836,295.333 266.169,295.5 287.5,296C 299.51,301.016 302.676,309.516 297,321.5C 289.833,328.667 282.667,335.833 275.5,343C 272.112,345.361 268.446,347.194 264.5,348.5C 262.901,355.359 263.401,362.025 266,368.5C 275,377.833 284,377.833 293,368.5C 294.827,364.719 295.827,360.719 296,356.5C 299.071,351.701 303.238,350.535 308.5,353C 309.701,353.903 310.535,355.069 311,356.5C 312.21,374.628 304.044,386.128 286.5,391C 274.455,393.241 264.122,390.075 255.5,381.5C 242.284,393.017 227.95,394.517 212.5,386C 202.956,378.416 198.79,368.582 200,356.5C 203.071,351.701 207.238,350.535 212.5,353C 214.701,357.969 216.534,363.135 218,368.5C 224.265,375.94 231.765,377.44 240.5,373C 247.344,366.17 249.344,358.004 246.5,348.5C 242.554,347.194 238.888,345.361 235.5,343C 226.931,335.1 219.097,326.6 212,317.5C 209.347,306.554 213.18,299.221 223.5,295.5 Z M 227.5,312.5 C 233.965,318.464 240.298,324.631 246.5,331C 252.5,334.333 258.5,334.333 264.5,331C 270.833,324.667 277.167,318.333 283.5,312C 264.662,311.171 245.995,311.338 227.5,312.5 Z"/></g>
</svg>
