<?xml version="1.0" encoding="UTF-8"?>
<!DOCTYPE svg PUBLIC "-//W3C//DTD SVG 1.1//EN" "http://www.w3.org/Graphics/SVG/1.1/DTD/svg11.dtd">
<svg xmlns="http://www.w3.org/2000/svg" version="1.1" width="512px" height="512px" style="shape-rendering:geometricPrecision; text-rendering:geometricPrecision; image-rendering:optimizeQuality; fill-rule:evenodd; clip-rule:evenodd" xmlns:xlink="http://www.w3.org/1999/xlink">
<g><path style="opacity:0.928" fill="#fefffe" d="M 73.5,-0.5 C 82.5,-0.5 91.5,-0.5 100.5,-0.5C 136.22,6.87426 160.22,27.8743 172.5,62.5C 213.406,47.1097 255.406,43.2764 298.5,51C 312.2,53.5914 325.534,57.4247 338.5,62.5C 350.78,27.8743 374.78,6.87426 410.5,-0.5C 419.5,-0.5 428.5,-0.5 437.5,-0.5C 477.833,8.5 502.5,33.1667 511.5,73.5C 511.5,82.5 511.5,91.5 511.5,100.5C 505.348,131.5 488.015,154 459.5,168C 488.405,222.807 495.238,280.307 480,340.5C 457.193,416.305 409.027,468.805 335.5,498C 316.209,504.754 296.542,509.254 276.5,511.5C 262.5,511.5 248.5,511.5 234.5,511.5C 146.006,500.155 82.1728,454.489 43,374.5C 21.5706,323.878 17.5706,271.878 31,218.5C 36.0389,200.924 42.8722,184.091 51.5,168C 22.9849,154 5.65154,131.5 -0.5,100.5C -0.5,91.5 -0.5,82.5 -0.5,73.5C 8.5,33.1667 33.1667,8.5 73.5,-0.5 Z M 86.5,14.5 C 121.383,17.0638 144.716,34.7305 156.5,67.5C 152.268,71.4517 147.268,74.1183 141.5,75.5C 135.986,51.8195 121.319,37.3195 97.5,32C 69.5701,28.3799 49.0701,38.8799 36,63.5C 24.341,98.8324 35.1743,124.499 68.5,140.5C 65.8573,145.132 62.8573,149.465 59.5,153.5C 27.0874,137.689 12.5874,111.689 16,75.5C 24.8802,38.1113 48.3802,17.778 86.5,14.5 Z M 422.5,14.5 C 461.622,17.1344 485.789,37.4677 495,75.5C 498.374,111.431 484.04,137.431 452,153.5C 448.332,149.646 445.165,145.312 442.5,140.5C 474.541,125.412 485.707,100.745 476,66.5C 472.554,57.5926 467.221,56.2593 460,62.5C 459.333,65.1667 459.333,67.8333 460,70.5C 468.784,98.2663 459.45,116.933 432,126.5C 423.876,119.377 416.042,111.877 408.5,104C 400.128,97.4889 391.794,90.9889 383.5,84.5C 388.968,57.7645 405.301,45.5978 432.5,48C 435.244,48.8035 437.911,49.8035 440.5,51C 451.004,52.1635 454.338,47.8301 450.5,38C 423.739,25.7342 400.239,30.2342 380,51.5C 374.582,58.6677 371.082,66.6677 369.5,75.5C 363.732,74.1183 358.732,71.4517 354.5,67.5C 365.998,35.4263 388.665,17.7597 422.5,14.5 Z M 78.5,47.5 C 105.677,45.5789 122.01,57.9122 127.5,84.5C 119.206,90.9889 110.872,97.4889 102.5,104C 94.9578,111.877 87.1244,119.377 79,126.5C 55.5832,119.009 45.2499,103.009 48,78.5C 52.3489,62.3186 62.5156,51.9852 78.5,47.5 Z M 236.5,63.5 C 312.406,59.3845 374.906,86.0511 424,143.5C 470.138,203.97 482.804,270.97 462,344.5C 441.977,404.525 403.477,448.359 346.5,476C 277.93,505.355 210.93,502.022 145.5,466C 70.529,417.898 35.3623,349.064 40,259.5C 49.5605,181.987 88.3938,124.487 156.5,87C 181.879,74.3693 208.546,66.536 236.5,63.5 Z M 151.5,215.5 C 164.912,215.723 169.412,222.057 165,234.5C 156.848,241.753 149.848,240.753 144,231.5C 142.485,224.2 144.985,218.867 151.5,215.5 Z M 352.5,215.5 C 359.311,214.654 364.144,217.321 367,223.5C 368.737,231.194 365.903,236.361 358.5,239C 348.35,239.517 343.517,234.683 344,224.5C 345.714,220.29 348.547,217.29 352.5,215.5 Z M 227.5,312.5 C 245.995,311.338 264.662,311.171 283.5,312C 277.167,318.333 270.833,324.667 264.5,331C 258.5,334.333 252.5,334.333 246.5,331C 240.298,324.631 233.965,318.464 227.5,312.5 Z"/></g>
<g><path style="opacity:0.925" fill="#fefffe" d="M 149.5,199.5 C 167.553,198.094 178.72,206.094 183,223.5C 184.201,240.279 176.701,250.779 160.5,255C 144.137,256.903 133.304,250.07 128,234.5C 125.563,216.676 132.729,205.009 149.5,199.5 Z M 151.5,215.5 C 144.985,218.867 142.485,224.2 144,231.5C 149.848,240.753 156.848,241.753 165,234.5C 169.412,222.057 164.912,215.723 151.5,215.5 Z"/></g>
<g><path style="opacity:0.925" fill="#fefffe" d="M 349.5,199.5 C 373.812,198.644 384.979,210.311 383,234.5C 377.696,250.07 366.863,256.903 350.5,255C 333.977,250.464 326.477,239.631 328,222.5C 330.909,210.76 338.076,203.094 349.5,199.5 Z M 352.5,215.5 C 348.547,217.29 345.714,220.29 344,224.5C 343.517,234.683 348.35,239.517 358.5,239C 365.903,236.361 368.737,231.194 367,223.5C 364.144,217.321 359.311,214.654 352.5,215.5 Z"/></g>
<g><path style="opacity:0.924" fill="#fefffe" d="M 245.5,239.5 C 272.896,237.915 297.896,244.748 320.5,260C 325.824,265.046 325.824,270.046 320.5,275C 318.167,275.667 315.833,275.667 313.5,275C 272.781,248.189 232.781,249.189 193.5,278C 159.753,310.057 151.253,347.891 168,391.5C 171.989,398.647 175.822,405.814 179.5,413C 178.13,420.002 174.13,422.335 167.5,420C 153.854,403.764 146.02,384.931 144,363.5C 140.754,319.836 156.587,285.002 191.5,259C 208.046,248.209 226.046,241.709 245.5,239.5 Z"/></g>
<g><path style="opacity:0.924" fill="#fefffe" d="M 336.5,282.5 C 340.909,281.618 344.409,282.952 347,286.5C 368.474,318.823 373.141,353.49 361,390.5C 338.643,442.278 299.143,466.445 242.5,463C 221.449,460.774 202.949,452.941 187,439.5C 184.766,432.75 187.099,428.75 194,427.5C 201.853,431.511 209.686,435.678 217.5,440C 261.835,455.958 299.668,446.458 331,411.5C 357.956,372.414 358.289,333.081 332,293.5C 330.776,288.626 332.276,284.959 336.5,282.5 Z"/></g>
<g><path style="opacity:0.93" fill="#fefffe" d="M 223.5,295.5 C 244.836,295.333 266.169,295.5 287.5,296C 299.51,301.016 302.676,309.516 297,321.5C 289.5,329 282,336.5 274.5,344C 271.029,346.072 267.362,347.572 263.5,348.5C 263.139,354.593 263.639,360.593 265,366.5C 270.824,375.771 278.657,377.938 288.5,373C 290.709,371.127 292.542,368.96 294,366.5C 294.801,362.186 295.968,358.019 297.5,354C 302.918,350.316 307.418,351.15 311,356.5C 312.213,372.572 305.38,383.738 290.5,390C 277.131,393.907 265.464,391.074 255.5,381.5C 242.284,393.017 227.95,394.517 212.5,386C 202.956,378.416 198.79,368.582 200,356.5C 203.582,351.15 208.082,350.316 213.5,354C 214.909,358.823 216.409,363.656 218,368.5C 224.295,375.914 231.795,377.414 240.5,373C 242.709,371.127 244.542,368.96 246,366.5C 247.361,360.593 247.861,354.593 247.5,348.5C 243.638,347.572 239.971,346.072 236.5,344C 227.598,335.768 219.431,326.934 212,317.5C 209.347,306.554 213.18,299.221 223.5,295.5 Z M 227.5,312.5 C 233.965,318.464 240.298,324.631 246.5,331C 252.5,334.333 258.5,334.333 264.5,331C 270.833,324.667 277.167,318.333 283.5,312C 264.662,311.171 245.995,311.338 227.5,312.5 Z"/></g>
</svg>
